<?xml version="1.0" encoding="utf-8"?><!-- Uploaded to: SVG Repo, www.svgrepo.com, Generator: SVG Repo Mixer Tools -->
<svg version="1.1" id="Uploaded to svgrepo.com" xmlns="http://www.w3.org/2000/svg" xmlns:xlink="http://www.w3.org/1999/xlink" 
	 width="800px" height="800px" viewBox="0 0 32 32" xml:space="preserve">
<style type="text/css">
	.blueprint_een{fill:#111918;}
	.st0{fill:#0B1719;}
</style>
<path class="blueprint_een" d="M12,29H3V3h9V29z M13,1H2C1.448,1,1,1.448,1,2v28c0,0.552,0.448,1,1,1h11c0.552,0,1-0.448,1-1
	V2C14,1.448,13.552,1,13,1L13,1z M29,29h-9V3h9V29z M19,1c-0.552,0-1,0.448-1,1v28c0,0.552,0.448,1,1,1h11c0.552,0,1-0.448,1-1V2
	c0-0.552-0.448-1-1-1H19z"/>
</svg>